<?xml version="1.0" encoding="UTF-8" standalone="no"?>
<svg
   xmlns:dc="http://purl.org/dc/elements/1.1/"
   xmlns:cc="http://creativecommons.org/ns#"
   xmlns:rdf="http://www.w3.org/1999/02/22-rdf-syntax-ns#"
   xmlns:svg="http://www.w3.org/2000/svg"
   xmlns="http://www.w3.org/2000/svg"
   xmlns:xlink="http://www.w3.org/1999/xlink"
   xmlns:sodipodi="http://sodipodi.sourceforge.net/DTD/sodipodi-0.dtd"
   xmlns:inkscape="http://www.inkscape.org/namespaces/inkscape"
   height="22"
   width="64"
   version="1.1"
   id="svg2"
   inkscape:version="0.48.4 r9939"
   sodipodi:docname="toggle-off-intl.svg">
  <metadata
     id="metadata84">
    <rdf:RDF>
      <cc:Work
         rdf:about="">
        <dc:format>image/svg+xml</dc:format>
        <dc:type
           rdf:resource="http://purl.org/dc/dcmitype/StillImage" />
        <dc:title />
      </cc:Work>
    </rdf:RDF>
  </metadata>
  <sodipodi:namedview
     pagecolor="#ffffff"
     bordercolor="#666666"
     borderopacity="1"
     objecttolerance="10"
     gridtolerance="10"
     guidetolerance="10"
     inkscape:pageopacity="0"
     inkscape:pageshadow="2"
     inkscape:window-width="1527"
     inkscape:window-height="842"
     id="namedview82"
     showgrid="false"
     inkscape:zoom="14.097941"
     inkscape:cx="33.951237"
     inkscape:cy="11"
     inkscape:window-x="73"
     inkscape:window-y="25"
     inkscape:window-maximized="1"
     inkscape:current-layer="svg2" />
  <defs
     id="defs4">
    <radialGradient
       id="w"
       xlink:href="#n"
       gradientUnits="userSpaceOnUse"
       cy="11"
       cx="42.5"
       gradientTransform="matrix(11,0,0,10,-447,-99)" />
    <linearGradient
       id="n">
      <stop
         offset="0"
         id="stop8" />
      <stop
         stop-opacity=".70588"
         offset="0.6"
         id="stop10" />
      <stop
         stop-opacity="0"
         offset="1"
         id="stop12" />
    </linearGradient>
    <radialGradient
       id="v"
       xlink:href="#m"
       gradientUnits="userSpaceOnUse"
       cy="11"
       cx="42.5"
       gradientTransform="matrix(11,0,0,10,-446,-99)" />
    <linearGradient
       id="m"
       stop-color="#fff">
      <stop
         offset="0"
         id="stop16" />
      <stop
         stop-opacity=".70588"
         offset="0.6"
         id="stop18" />
      <stop
         stop-opacity="0"
         offset="1"
         id="stop20" />
    </linearGradient>
    <radialGradient
       id="u"
       xlink:href="#n"
       gradientUnits="userSpaceOnUse"
       cy="11"
       cx="42.5"
       gradientTransform="matrix(11,0,0,10,-451,-99)" />
    <radialGradient
       id="t"
       xlink:href="#m"
       gradientUnits="userSpaceOnUse"
       cy="11"
       cx="42.5"
       gradientTransform="matrix(11,0,0,10,-450,-99)" />
    <radialGradient
       id="s"
       xlink:href="#n"
       gradientUnits="userSpaceOnUse"
       cy="11"
       cx="42.5"
       gradientTransform="matrix(11,0,0,10,-455,-99)" />
    <radialGradient
       id="x"
       xlink:href="#m"
       gradientUnits="userSpaceOnUse"
       cy="11"
       cx="42.5"
       gradientTransform="matrix(11,0,0,10,-454,-99)" />
    <linearGradient
       id="p"
       y2="28"
       stop-color="#fff"
       gradientUnits="userSpaceOnUse"
       x2="41"
       gradientTransform="translate(-32,-1)"
       y1="1"
       x1="41">
      <stop
         offset="0"
         id="stop27" />
      <stop
         stop-opacity="0"
         offset="1"
         id="stop29" />
    </linearGradient>
    <linearGradient
       id="q"
       y2="2"
       gradientUnits="userSpaceOnUse"
       x2="48"
       gradientTransform="translate(-32,-1)"
       y1="21"
       x1="48">
      <stop
         stop-color="#a0a0a0"
         offset="0"
         id="stop32" />
      <stop
         stop-color="#dcdcdc"
         offset="1"
         id="stop34" />
    </linearGradient>
    <filter
       id="o"
       height="1.24"
       width="1.24"
       color-interpolation-filters="sRGB"
       y="-.12"
       x="-.12">
      <feGaussianBlur
         stdDeviation="0.5"
         id="feGaussianBlur37" />
    </filter>
    <linearGradient
       id="r"
       y2=".49999"
       gradientUnits="userSpaceOnUse"
       x2="40.812"
       gradientTransform="matrix(-1,0,0,-1,64.5,20.5)"
       y1="18.5"
       x1="40.812">
      <stop
         stop-color="#333"
         offset="0"
         id="stop40" />
      <stop
         stop-color="#555"
         offset="1"
         id="stop42" />
    </linearGradient>
    <radialGradient
       inkscape:collect="always"
       xlink:href="#n"
       id="radialGradient3794"
       gradientUnits="userSpaceOnUse"
       gradientTransform="matrix(11,0,0,10,-447,-99)"
       cx="42.5"
       cy="11" />
    <radialGradient
       inkscape:collect="always"
       xlink:href="#m"
       id="radialGradient3797"
       gradientUnits="userSpaceOnUse"
       gradientTransform="matrix(11,0,0,10,-446,-99)"
       cx="42.5"
       cy="11" />
    <radialGradient
       inkscape:collect="always"
       xlink:href="#n"
       id="radialGradient3800"
       gradientUnits="userSpaceOnUse"
       gradientTransform="matrix(11,0,0,10,-451,-99)"
       cx="42.5"
       cy="11" />
    <radialGradient
       inkscape:collect="always"
       xlink:href="#m"
       id="radialGradient3803"
       gradientUnits="userSpaceOnUse"
       gradientTransform="matrix(11,0,0,10,-450,-99)"
       cx="42.5"
       cy="11" />
    <radialGradient
       inkscape:collect="always"
       xlink:href="#n"
       id="radialGradient3806"
       gradientUnits="userSpaceOnUse"
       gradientTransform="matrix(11,0,0,10,-455,-99)"
       cx="42.5"
       cy="11" />
    <radialGradient
       inkscape:collect="always"
       xlink:href="#m"
       id="radialGradient3809"
       gradientUnits="userSpaceOnUse"
       gradientTransform="matrix(11,0,0,10,-454,-99)"
       cx="42.5"
       cy="11" />
    <linearGradient
       inkscape:collect="always"
       xlink:href="#p"
       id="linearGradient3812"
       gradientUnits="userSpaceOnUse"
       gradientTransform="translate(-32,-1)"
       x1="41"
       y1="1"
       x2="41"
       y2="28" />
    <linearGradient
       inkscape:collect="always"
       xlink:href="#q"
       id="linearGradient3815"
       gradientUnits="userSpaceOnUse"
       gradientTransform="translate(-32,-1)"
       x1="48"
       y1="21"
       x2="48"
       y2="2" />
    <linearGradient
       inkscape:collect="always"
       xlink:href="#r"
       id="linearGradient3827"
       gradientUnits="userSpaceOnUse"
       gradientTransform="matrix(-1,0,0,-1,64.5,20.5)"
       x1="40.812"
       y1="18.5"
       x2="40.812"
       y2=".49999" />
  </defs>
  <g
     id="g3835">
    <path
       d="M 5,3 C 3.8776,3 3,3.8776 3,5 v 12 c 0,1.1224 0.8776,2 2,2 h 54 c 1.1224,0 2,-0.8776 2,-2 V 5 C 61,3.8776 60.122,3 59,3 H 5 z"
       id="path46"
       style="color:#000000;fill:url(#linearGradient3827)"
       inkscape:connector-curvature="0" />
    <path
       d="M 5,2 C 3.338,2 2,3.338 2,5 v 12 c 0,1.662 1.338,3 3,3 h 54 c 1.662,0 3,-1.338 3,-3 V 5 C 62,3.338 60.662,2 59,2 z M 5,5 H 59 V 17 H 5 z"
       id="path48"
       inkscape:connector-curvature="0"
       style="opacity:0.07999998;color:#000000" />
    <path
       d="M 5,2 C 3.338,2 2,3.338 2,5 v 12 c 0,1.662 1.338,3 3,3 h 54 c 1.662,0 3,-1.338 3,-3 V 5 C 62,3.338 60.662,2 59,2 z m 0,2 h 54 c 0.5825,0 1,0.4175 1,1 v 12 c 0,0.5825 -0.4175,1 -1,1 H 5 C 4.4175,18 4,17.582 4,17 V 5 C 4,4.4175 4.4175,4 5,4 z"
       id="path50"
       inkscape:connector-curvature="0"
       style="opacity:0.12000002;color:#000000" />
    <path
       d="M 5,2 C 3.338,2 2,3.338 2,5 v 12 c 0,1.662 1.338,3 3,3 h 54 c 1.662,0 3,-1.338 3,-3 V 5 C 62,3.338 60.662,2 59,2 z m 0,1 h 54 c 1.1174,0 2,0.88261 2,2 v 12 c 0,1.1174 -0.88261,2 -2,2 H 5 C 3.8826,19 3,18.117 3,17 V 5 C 3,3.8826 3.8826,3 5,3 z"
       id="path52"
       inkscape:connector-curvature="0"
       style="opacity:0.2;color:#000000;fill:#ffffff" />
    <g
       id="g3831">
      <path
         d="m 47,6.5 c -2.7614,0 -5,2.2386 -5,5 0,2.7614 2.2386,5 5,5 2.7614,0 5,-2.2386 5,-5 0,-2.7614 -2.2386,-5 -5,-5 z m 0,2 c 1.6569,0 3,1.3431 3,3 0,1.6569 -1.3431,3 -3,3 -1.6569,0 -3,-1.3431 -3,-3 0,-1.6569 1.3431,-3 3,-3 z"
         id="path56"
         inkscape:connector-curvature="0"
         style="opacity:0.25;color:#000000;filter:url(#o)" />
      <path
         d="m 47,6 c -2.7614,0 -5,2.2386 -5,5 0,2.7614 2.2386,5 5,5 2.7614,0 5,-2.2386 5,-5 0,-2.7614 -2.2386,-5 -5,-5 z m 0,2 c 1.6569,0 3,1.3431 3,3 0,1.6569 -1.3431,3 -3,3 -1.6569,0 -3,-1.3431 -3,-3 0,-1.6569 1.3431,-3 3,-3 z"
         id="path58"
         inkscape:connector-curvature="0"
         style="opacity:1;color:#000000;fill:#ffffff" />
    </g>
    <path
       d="m 5,-0.9375 c -3.2559,0 -5.9375,2.6816 -5.9375,5.9375 v 12 c 0,3.2559 2.6816,5.9375 5.9375,5.9375 h 24 c 3.2559,0 5.9375,-2.6816 5.9375,-5.9375 V 5 c 0,-3.2559 -2.682,-5.9375 -5.938,-5.9375 h -24 z"
       id="path60"
       inkscape:connector-curvature="0"
       style="opacity:0.05;color:#000000" />
    <path
       d="M 5,0 C 2.2643,0 0,2.2643 0,5 v 12 c 0,2.7357 2.2643,5 5,5 h 24 c 2.7357,0 5,-2.2643 5,-5 V 5 C 34,2.2643 31.736,0 29,0 H 5 z"
       id="path62"
       inkscape:connector-curvature="0"
       style="opacity:0.1;color:#000000" />
    <path
       d="M 5,1.0312 C 2.8258,1.0312 1.0312,2.8258 1.0312,5 v 12 c 0,2.1742 1.7946,3.9688 3.9688,3.9688 h 24 c 2.1742,0 3.9688,-1.7946 3.9688,-3.9688 V 5 c 0,-2.1742 -1.795,-3.9688 -3.969,-3.9688 h -24 z"
       id="path64"
       inkscape:connector-curvature="0"
       style="opacity:0.2;color:#000000" />
    <rect
       rx="3"
       ry="3"
       height="18"
       width="30"
       y="2"
       x="2"
       id="rect66"
       style="color:#000000;fill:url(#linearGradient3815)" />
    <path
       d="M 5,2 C 3.338,2 2,3.338 2,5 v 12 c 0,1.662 1.338,3 3,3 h 24 c 1.662,0 3,-1.338 3,-3 V 5 C 32,3.338 30.662,2 29,2 z m 0,1 h 24 c 1.1256,0 2,0.87439 2,2 v 12 c 0,1.1256 -0.87439,2 -2,2 H 5 C 3.8744,19 3,18.126 3,17 V 5 C 3,3.8744 3.8744,3 5,3 z"
       id="path68"
       style="opacity:0.6;color:#000000;fill:url(#linearGradient3812)"
       inkscape:connector-curvature="0" />
    <rect
       height="10"
       width="1"
       y="6"
       x="13"
       id="rect70"
       style="opacity:0.4;color:#000000;fill:url(#radialGradient3809)" />
    <rect
       height="10"
       width="1"
       y="6"
       x="12"
       id="rect72"
       style="opacity:0.2;color:#000000;fill:url(#radialGradient3806)" />
    <rect
       height="10"
       width="1"
       y="6"
       x="17"
       id="rect74"
       style="opacity:0.4;color:#000000;fill:url(#radialGradient3803)" />
    <rect
       height="10"
       width="1"
       y="6"
       x="16"
       id="rect76"
       style="opacity:0.2;color:#000000;fill:url(#radialGradient3800)" />
    <rect
       height="10"
       width="1"
       y="6"
       x="21"
       id="rect78"
       style="opacity:0.4;color:#000000;fill:url(#radialGradient3797)" />
    <rect
       height="10"
       width="1"
       y="6"
       x="20"
       id="rect80"
       style="opacity:0.2;color:#000000;fill:url(#radialGradient3794)" />
  </g>
</svg>
